<?xml version="1.0" encoding="UTF-8"?>
<svg xmlns="http://www.w3.org/2000/svg" xmlns:xlink="http://www.w3.org/1999/xlink" width="17px" height="17px" viewBox="0 0 17 17" version="1.1">
<g id="surface1">
<path style=" stroke:none;fill-rule:nonzero;fill:rgb(85.882354%,82.352942%,82.352942%);fill-opacity:1;" d="M 14.953125 6.085938 L 10.363281 6.085938 L 10.363281 6.210938 C 10.363281 7.242188 9.527344 8.078125 8.5 8.078125 C 7.472656 8.078125 6.636719 7.242188 6.636719 6.210938 L 6.636719 6.085938 L 2.046875 6.085938 C 0.917969 6.085938 0 7.003906 0 8.132812 L 0 8.808594 C 0 9.703125 0.574219 10.464844 1.375 10.742188 L 1.820312 15.078125 C 1.945312 16.101562 2.820312 16.871094 3.851562 16.871094 L 13.148438 16.871094 C 14.179688 16.871094 15.054688 16.101562 15.183594 15.078125 L 15.625 10.742188 C 16.425781 10.464844 17 9.703125 17 8.808594 L 17 8.132812 C 17 7.003906 16.082031 6.085938 14.953125 6.085938 Z M 6.023438 13.960938 C 6.023438 14.351562 5.707031 14.667969 5.316406 14.667969 C 4.925781 14.667969 4.609375 14.351562 4.609375 13.960938 L 4.609375 11.167969 C 4.609375 10.777344 4.925781 10.457031 5.316406 10.457031 C 5.707031 10.457031 6.023438 10.777344 6.023438 11.167969 Z M 9.207031 13.960938 C 9.207031 14.351562 8.890625 14.667969 8.5 14.667969 C 8.109375 14.667969 7.792969 14.351562 7.792969 13.960938 L 7.792969 11.167969 C 7.792969 10.777344 8.109375 10.457031 8.5 10.457031 C 8.890625 10.457031 9.207031 10.777344 9.207031 11.167969 Z M 12.390625 13.960938 C 12.390625 14.351562 12.074219 14.667969 11.683594 14.667969 C 11.292969 14.667969 10.976562 14.351562 10.976562 13.960938 L 10.976562 11.167969 C 10.976562 10.777344 11.292969 10.457031 11.683594 10.457031 C 12.074219 10.457031 12.390625 10.777344 12.390625 11.167969 Z M 12.390625 13.960938 "/>
<path style=" stroke:none;fill-rule:nonzero;fill:rgb(85.882354%,82.352942%,82.352942%);fill-opacity:1;" d="M 8.5 7.328125 C 9.117188 7.328125 9.613281 6.828125 9.613281 6.210938 L 9.613281 1.242188 C 9.613281 0.625 9.117188 0.128906 8.5 0.128906 C 7.882812 0.128906 7.386719 0.625 7.386719 1.242188 L 7.386719 6.210938 C 7.386719 6.828125 7.882812 7.328125 8.5 7.328125 Z M 8.5 7.328125 "/>
</g>
</svg>
