<?xml version="1.0" encoding="UTF-8"?>
<svg xmlns="http://www.w3.org/2000/svg" xmlns:xlink="http://www.w3.org/1999/xlink" width="32px" height="32px" viewBox="0 0 32 32" version="1.1">
<g id="surface1">
<path style=" stroke:none;fill-rule:nonzero;fill:rgb(52.941179%,50.980395%,50.980395%);fill-opacity:1;" d="M 15.210938 27.777344 C 15.210938 25.636719 13.476562 23.898438 11.335938 23.898438 C 9.191406 23.898438 7.457031 25.636719 7.457031 27.777344 C 7.457031 29.917969 9.191406 31.65625 11.335938 31.65625 C 13.476562 31.65625 15.210938 29.917969 15.210938 27.777344 Z M 15.210938 27.777344 "/>
<path style=" stroke:none;fill-rule:nonzero;fill:rgb(52.941179%,50.980395%,50.980395%);fill-opacity:1;" d="M 23.761719 23.859375 C 21.609375 23.648438 19.691406 25.222656 19.480469 27.375 C 19.269531 29.527344 20.839844 31.445312 22.992188 31.65625 C 23.25 31.679688 23.503906 31.679688 23.761719 31.65625 C 25.914062 31.445312 27.484375 29.527344 27.273438 27.375 C 27.089844 25.515625 25.621094 24.042969 23.761719 23.859375 Z M 23.761719 23.859375 "/>
<path style=" stroke:none;fill-rule:nonzero;fill:rgb(52.941179%,50.980395%,50.980395%);fill-opacity:1;" d="M 31.742188 9.101562 C 31.550781 8.8125 31.222656 8.640625 30.878906 8.648438 L 26.585938 8.648438 L 26.585938 8.574219 C 26.585938 4.019531 22.894531 0.324219 18.339844 0.324219 C 13.785156 0.324219 10.09375 4.015625 10.089844 8.570312 C 10.089844 8.570312 10.089844 8.574219 10.089844 8.574219 L 10.089844 8.648438 L 6.890625 8.648438 L 5.800781 3.675781 C 5.675781 3.171875 5.226562 2.8125 4.707031 2.8125 L 0 2.8125 L 0 5.070312 L 3.804688 5.070312 L 7.304688 21.148438 C 7.398438 21.679688 7.859375 22.0625 8.398438 22.054688 L 28.089844 22.054688 C 28.609375 22.050781 29.0625 21.691406 29.183594 21.1875 L 31.96875 10.042969 C 32.050781 9.710938 31.96875 9.359375 31.742188 9.101562 Z M 18.339844 14.558594 C 15.03125 14.558594 12.351562 11.878906 12.351562 8.574219 C 12.351562 5.265625 15.03125 2.585938 18.339844 2.585938 C 21.644531 2.585938 24.324219 5.265625 24.324219 8.574219 C 24.304688 11.871094 21.636719 14.539062 18.339844 14.558594 Z M 18.339844 14.558594 "/>
<path style=" stroke:none;fill-rule:nonzero;fill:rgb(52.941179%,50.980395%,50.980395%);fill-opacity:1;" d="M 17.433594 8.6875 L 15.363281 6.578125 L 13.746094 8.160156 L 16.605469 11.058594 C 16.816406 11.269531 17.097656 11.394531 17.398438 11.398438 C 17.691406 11.410156 17.976562 11.300781 18.1875 11.09375 L 22.933594 6.613281 L 21.386719 4.957031 Z M 17.433594 8.6875 "/>
</g>
</svg>
