<?xml version="1.0" encoding="UTF-8"?>
<svg xmlns="http://www.w3.org/2000/svg" xmlns:xlink="http://www.w3.org/1999/xlink" width="10px" height="10px" viewBox="0 0 10 10" version="1.1">
<g id="surface1">
<path style=" stroke:none;fill-rule:nonzero;fill:rgb(99.607843%,44.705883%,29.803923%);fill-opacity:1;" d="M 0.648438 10.007812 C 0.480469 10.007812 0.316406 9.945312 0.191406 9.816406 C -0.0625 9.566406 -0.0625 9.15625 0.191406 8.902344 L 8.894531 0.199219 C 9.148438 -0.0546875 9.558594 -0.0546875 9.808594 0.199219 C 10.0625 0.453125 10.0625 0.859375 9.808594 1.113281 L 1.105469 9.816406 C 0.980469 9.945312 0.8125 10.007812 0.648438 10.007812 Z M 0.648438 10.007812 "/>
<path style=" stroke:none;fill-rule:nonzero;fill:rgb(99.607843%,44.705883%,29.803923%);fill-opacity:1;" d="M 9.351562 10.007812 C 9.1875 10.007812 9.019531 9.945312 8.894531 9.816406 L 0.191406 1.113281 C -0.0625 0.859375 -0.0625 0.453125 0.191406 0.199219 C 0.441406 -0.0546875 0.851562 -0.0546875 1.105469 0.199219 L 9.808594 8.902344 C 10.0625 9.15625 10.0625 9.566406 9.808594 9.816406 C 9.683594 9.945312 9.519531 10.007812 9.351562 10.007812 Z M 9.351562 10.007812 "/>
</g>
</svg>
