<?xml version="1.0" encoding="UTF-8"?>
<svg xmlns="http://www.w3.org/2000/svg" xmlns:xlink="http://www.w3.org/1999/xlink" width="32px" height="32px" viewBox="0 0 32 32" version="1.1">
<g id="surface1">
<path style=" stroke:none;fill-rule:nonzero;fill:rgb(85.882354%,81.960785%,81.960785%);fill-opacity:1;" d="M 16 0 C 7.164062 0 0 7.164062 0 16 C 0 24.835938 7.164062 32 16 32 C 24.835938 32 32 24.835938 32 16 C 32 7.164062 24.835938 0 16 0 Z M 14.382812 4.210938 C 14.382812 3.320312 15.109375 2.597656 16 2.597656 C 16.890625 2.597656 17.613281 3.320312 17.613281 4.210938 L 17.613281 15.335938 C 17.613281 16.226562 16.890625 16.949219 16 16.949219 C 15.109375 16.949219 14.382812 16.226562 14.382812 15.335938 Z M 16 27.816406 C 9.757812 27.816406 4.679688 22.738281 4.679688 16.496094 C 4.679688 12.445312 6.867188 8.679688 10.390625 6.664062 C 11.164062 6.222656 12.152344 6.492188 12.59375 7.265625 C 13.035156 8.039062 12.769531 9.027344 11.992188 9.46875 C 9.476562 10.910156 7.910156 13.601562 7.910156 16.496094 C 7.910156 20.957031 11.539062 24.585938 16 24.585938 C 20.460938 24.585938 24.089844 20.957031 24.089844 16.496094 C 24.089844 13.601562 22.523438 10.910156 20.007812 9.46875 C 19.230469 9.027344 18.960938 8.039062 19.40625 7.265625 C 19.847656 6.492188 20.835938 6.222656 21.609375 6.664062 C 25.132812 8.679688 27.320312 12.445312 27.320312 16.496094 C 27.320312 22.738281 22.242188 27.816406 16 27.816406 Z M 16 27.816406 "/>
</g>
</svg>
