<?xml version="1.0" encoding="UTF-8"?>
<svg xmlns="http://www.w3.org/2000/svg" xmlns:xlink="http://www.w3.org/1999/xlink" width="32px" height="32px" viewBox="0 0 32 32" version="1.1">
<g id="surface1">
<path style=" stroke:none;fill-rule:nonzero;fill:rgb(52.941179%,50.980395%,50.980395%);fill-opacity:1;" d="M 16 0 C 7.175781 0 0 7.175781 0 16 C 0 24.824219 7.175781 32 16 32 C 24.824219 32 32 24.824219 32 16 C 32 7.175781 24.824219 0 16 0 Z M 22.855469 23.429688 L 9.144531 23.429688 C 8.511719 23.429688 8 22.917969 8 22.285156 C 8 21.65625 8.511719 21.144531 9.144531 21.144531 L 22.855469 21.144531 C 23.488281 21.144531 24 21.65625 24 22.285156 C 24 22.917969 23.488281 23.429688 22.855469 23.429688 Z M 22.855469 17.144531 L 9.144531 17.144531 C 8.511719 17.144531 8 16.628906 8 16 C 8 15.371094 8.511719 14.855469 9.144531 14.855469 L 22.855469 14.855469 C 23.488281 14.855469 24 15.371094 24 16 C 24 16.628906 23.488281 17.144531 22.855469 17.144531 Z M 22.855469 10.855469 L 9.144531 10.855469 C 8.511719 10.855469 8 10.34375 8 9.714844 C 8 9.082031 8.511719 8.570312 9.144531 8.570312 L 22.855469 8.570312 C 23.488281 8.570312 24 9.082031 24 9.714844 C 24 10.34375 23.488281 10.855469 22.855469 10.855469 Z M 22.855469 10.855469 "/>
</g>
</svg>
