<?xml version="1.0" encoding="UTF-8"?>
<svg xmlns="http://www.w3.org/2000/svg" xmlns:xlink="http://www.w3.org/1999/xlink" width="10px" height="10px" viewBox="0 0 10 10" version="1.1">
<g id="surface1">
<path style=" stroke:none;fill-rule:nonzero;fill:rgb(89.411765%,86.666667%,86.666667%);fill-opacity:1;" d="M 9.089844 4.085938 L 5.910156 4.085938 L 5.910156 0.910156 C 5.910156 0.40625 5.503906 0 5 0 C 4.5 0 4.09375 0.40625 4.09375 0.910156 L 4.09375 4.089844 L 0.910156 4.089844 C 0.410156 4.089844 0 4.496094 0 5 C 0 5.25 0.101562 5.480469 0.265625 5.644531 C 0.429688 5.8125 0.660156 5.914062 0.910156 5.914062 L 4.09375 5.914062 L 4.09375 9.089844 C 4.09375 9.339844 4.191406 9.570312 4.359375 9.734375 C 4.523438 9.898438 4.75 10 5 10 C 5.503906 10 5.910156 9.59375 5.910156 9.089844 L 5.910156 5.914062 L 9.089844 5.914062 C 9.59375 5.914062 10 5.503906 10 5 C 10 4.5 9.589844 4.085938 9.089844 4.085938 Z M 9.089844 4.085938 "/>
</g>
</svg>
