<?xml version="1.0" encoding="UTF-8"?>
<svg xmlns="http://www.w3.org/2000/svg" xmlns:xlink="http://www.w3.org/1999/xlink" width="14px" height="14px" viewBox="0 0 14 14" version="1.1">
<g id="surface1">
<path style=" stroke:none;fill-rule:nonzero;fill:rgb(50.980395%,52.156866%,52.156866%);fill-opacity:1;" d="M 8.191406 0.03125 C 4.988281 0.03125 2.382812 2.636719 2.382812 5.839844 C 2.382812 6.925781 2.683594 7.945312 3.203125 8.816406 L 0.402344 11.617188 C 0.144531 11.878906 0 12.222656 0 12.589844 C 0 12.960938 0.144531 13.304688 0.402344 13.566406 C 0.664062 13.828125 1.011719 13.96875 1.378906 13.96875 C 1.746094 13.96875 2.09375 13.828125 2.351562 13.566406 L 5.140625 10.777344 C 6.027344 11.328125 7.074219 11.648438 8.191406 11.648438 C 11.394531 11.648438 14 9.042969 14 5.839844 C 14 2.636719 11.394531 0.03125 8.191406 0.03125 Z M 8.191406 9.800781 C 6.007812 9.800781 4.230469 8.023438 4.230469 5.839844 C 4.230469 3.65625 6.007812 1.878906 8.191406 1.878906 C 10.375 1.878906 12.152344 3.65625 12.152344 5.839844 C 12.152344 8.023438 10.375 9.800781 8.191406 9.800781 Z M 5.925781 5.097656 C 5.792969 5.097656 5.660156 5.046875 5.558594 4.945312 C 5.359375 4.746094 5.359375 4.417969 5.558594 4.21875 L 6.914062 2.863281 C 7.113281 2.664062 7.441406 2.664062 7.640625 2.863281 C 7.84375 3.066406 7.84375 3.394531 7.640625 3.59375 L 6.289062 4.945312 C 6.1875 5.046875 6.058594 5.097656 5.925781 5.097656 Z M 6.359375 7.628906 C 6.226562 7.628906 6.097656 7.578125 5.996094 7.476562 C 5.792969 7.277344 5.792969 6.949219 5.996094 6.746094 L 9.441406 3.300781 C 9.644531 3.097656 9.96875 3.097656 10.171875 3.300781 C 10.375 3.503906 10.375 3.828125 10.171875 4.03125 L 6.726562 7.476562 C 6.625 7.578125 6.492188 7.628906 6.359375 7.628906 Z M 6.359375 7.628906 "/>
</g>
</svg>
